PathFileType	4	(X/Y/Z)	C:/Users/opensim2020/Desktop/walking_exp_matlab/subject02_walking10_straight_04.trc	
DataRate	CameraRate	NumFrames	NumMarkers	Units	OrigDataRate	OrigDataStartFrame	OrigNumFrames	
100.00	100.00	6	43	mm	100.00	3149	260	
Frame#	Time	LFHD			RFHD			LBHD			RBHD			C7			T10			CLAV			STRN			RBAK			LSHO			LUPA			LELB			LFRM			LWRA			LWRB			LFIN			RSHO			RUPA			RELB			RFRM			RWRA			RWRB			RFIN			LASI			RASI			LPSI			RPSI			LTHI			LKNE			LTIB			LANK			LHEE			LTOE			RTHI			RKNE			RTIB			RANK			RHEE			RTOE			*39			*40			*41			*42			
		X1	Y1	Z1	X2	Y2	Z2	X3	Y3	Z3	X4	Y4	Z4	X5	Y5	Z5	X6	Y6	Z6	X7	Y7	Z7	X8	Y8	Z8	X9	Y9	Z9	X10	Y10	Z10	X11	Y11	Z11	X12	Y12	Z12	X13	Y13	Z13	X14	Y14	Z14	X15	Y15	Z15	X16	Y16	Z16	X17	Y17	Z17	X18	Y18	Z18	X19	Y19	Z19	X20	Y20	Z20	X21	Y21	Z21	X22	Y22	Z22	X23	Y23	Z23	X24	Y24	Z24	X25	Y25	Z25	X26	Y26	Z26	X27	Y27	Z27	X28	Y28	Z28	X29	Y29	Z29	X30	Y30	Z30	X31	Y31	Z31	X32	Y32	Z32	X33	Y33	Z33	X34	Y34	Z34	X35	Y35	Z35	X36	Y36	Z36	X37	Y37	Z37	X38	Y38	Z38	X39	Y39	Z39	X40	Y40	Z40	X41	Y41	Z41	X42	Y42	Z42	X43	Y43	Z43	

98	0.970	-1031.78357	29.96136	1752.84705	-1170.16919	-0.77369	1727.53894	-1043.23975	147.27518	1659.45752	-1182.26721	128.60124	1630.04736	-1113.50806	163.97603	1506.72913	-1113.71899	186.74220	1232.62769	-1072.87646	18.68087	1461.66858	-1075.78198	-54.76542	1296.32373	-1184.57593	188.43896	1331.77869	-921.89124	127.39782	1489.94226	-843.15570	152.56718	1290.04590	-835.41492	161.92355	1151.41260	-812.77954	169.75021	1022.76459	-819.44452	121.96202	889.21899	-800.32281	173.72253	899.71704	-791.60712	165.66599	832.64435	-1280.12390	47.32504	1490.01257	-1362.32397	25.48047	1296.22217	-1376.12097	-22.18321	1156.75830	-1381.82788	-85.95953	1052.92432	-1343.31824	-160.17874	945.09717	-1386.58643	-127.76663	929.25171	-1374.70166	-180.41940	879.88312	-947.78168	-57.12649	1000.09888	-1197.25037	-59.95296	961.58020	-1033.58105	154.23882	1025.58862	-1150.20288	154.65530	1018.17804	-893.05127	-43.04788	685.22253	-929.87640	-37.07534	480.86990	-936.67786	1.35146	288.55594	-980.18768	-20.25030	70.03738	-1034.93835	12.04091	43.40441	-962.92615	-177.14520	33.84635	-1280.96118	65.85378	661.29449	-1275.71448	93.15440	460.86075	-1279.84583	240.82828	348.75320	-1247.79724	376.83633	213.04405	-1185.61987	427.53619	205.50867	-1242.36011	336.75565	48.81213	-1143.95410	120.65464	1796.76965									 
99	0.980	-1029.98596	20.99223	1753.47986	-1168.72070	-9.22984	1728.21558	-1041.20935	138.45247	1660.68323	-1180.17041	120.82222	1631.32312	-1111.34778	156.04225	1508.05225	-1111.43250	179.48001	1233.81677	-1071.51819	10.66931	1462.86377	-1074.61060	-62.77063	1297.51929	-1181.59253	180.77208	1332.43567	-919.94342	118.56487	1491.18250	-840.36469	142.20744	1291.08557	-831.82916	149.88348	1152.36731	-808.99866	155.04660	1023.30542	-815.99860	105.02100	890.92780	-796.50726	156.95929	900.26770	-787.52704	147.48271	833.77441	-1278.64685	40.48845	1490.83850	-1360.75537	19.03605	1296.80884	-1373.97046	-27.73706	1157.14709	-1380.12122	-90.93562	1052.99060	-1342.06555	-164.99051	944.71515	-1385.15186	-132.18567	929.13031	-1373.28027	-184.27792	878.96643	-945.97162	-65.15954	1000.72424	-1195.83154	-67.83860	962.97137	-1030.79224	146.07455	1026.41675	-1147.35889	147.22006	1019.30078	-891.91461	-46.04036	684.55261	-928.58289	-38.72842	480.75488	-935.90649	0.19768	288.61563	-980.15015	-20.16065	70.01038	-1034.88037	12.13285	43.36962	-962.83636	-177.03471	33.83490	-1279.94202	51.67143	661.71252	-1275.28015	74.67720	461.11267	-1279.19202	223.52521	351.72302	-1246.41370	362.15640	219.48109	-1183.24805	411.52869	214.66347	-1241.64722	330.32462	52.79044	-1141.92786	111.62379	1798.25977	-3360.23340	2845.12842	1034.18738						 
100	0.990	-1028.31885	11.90977	1754.52600	-1167.57690	-17.87465	1728.87280	-1039.16284	129.76518	1662.19055	-1178.40930	112.95340	1633.12769	-1109.21118	148.04449	1509.43860	-1108.89111	171.06050	1234.88965	-1070.26160	2.68334	1464.02197	-1073.46204	-70.70509	1298.60925	-1179.57581	173.49246	1333.84790	-917.96130	109.57171	1492.45032	-837.40674	132.20961	1292.37622	-828.19501	137.73625	1153.28723	-805.31018	140.56134	1024.25879	-812.71173	87.99259	892.77875	-792.78650	139.84953	901.05042	-783.37701	128.91289	834.92462	-1277.28564	33.63431	1491.66199	-1359.75903	12.77017	1297.53772	-1372.19214	-33.35174	1157.64868	-1378.61548	-96.00076	1053.06543	-1340.78284	-169.59102	944.05725	-1383.80957	-136.51447	929.02167	-1372.11804	-188.10770	878.10895	-944.28662	-73.13439	1001.03107	-1194.70435	-75.33942	964.45837	-1027.98132	138.07539	1027.52979	-1144.34424	140.08965	1020.54773	-890.60028	-48.63768	684.29987	-927.47034	-40.69922	480.65002	-935.25470	-0.68081	288.71509	-980.12238	-20.04029	69.95060	-1034.72961	12.17380	43.33106	-962.81787	-176.89514	33.79718	-1279.03455	37.22813	662.41510	-1274.65503	56.28360	461.89078	-1278.39929	206.44057	355.03369	-1244.39429	347.02722	225.55879	-1180.11890	394.43646	223.12788	-1241.70288	323.14175	57.02454	-1139.93787	102.53447	1799.77625	-3356.88867	2845.81396	1034.16187						 
101	1.000	-1027.25439	2.11660	1755.36218	-1166.18835	-26.37712	1729.59583	-1037.41772	120.89609	1664.07739	-1176.56470	105.05345	1634.71179	-1107.12756	140.07671	1510.87756	-1106.25891	163.41808	1236.08057	-1069.02759	-5.25836	1465.11731	-1072.29395	-78.22020	1299.57336	-1176.85400	166.18185	1334.59180	-915.92847	100.37705	1493.76270	-834.46716	121.53423	1293.44312	-824.64618	125.34386	1154.05957	-801.62170	125.74303	1025.06763	-809.60126	70.58740	894.52740	-789.20660	122.65180	902.14209	-779.26367	110.13098	836.52960	-1276.03174	26.85632	1492.42896	-1358.36389	6.83002	1298.17371	-1370.01379	-38.91530	1157.91296	-1377.10425	-100.95773	1053.12561	-1339.95105	-174.41399	943.90918	-1382.71240	-140.74707	929.05524	-1371.08679	-191.77104	877.42267	-942.84845	-81.02588	1000.97101	-1193.72266	-82.61472	965.88684	-1025.11279	130.27065	1028.73169	-1141.29736	133.25714	1021.82861	-889.64429	-51.34975	684.10638	-926.40735	-42.90359	480.60925	-934.65558	-1.35010	288.89090	-980.03894	-19.92669	69.89633	-1034.68066	12.38419	43.32710	-962.81689	-176.74533	33.79662	-1278.60156	22.60077	663.40540	-1273.95129	38.04241	463.07544	-1277.12097	189.02646	358.09439	-1241.94885	331.50165	231.25668	-1176.37305	376.91180	230.44511	-1242.64893	314.47574	61.61861	-1137.97632	93.41715	1801.26074	-3356.79810	2846.00635	1034.16418						 
102	1.010	-1025.47766	-7.01194	1756.03955	-1164.88257	-34.87273	1730.39502	-1035.61230	111.72387	1665.26709	-1174.73926	97.13416	1636.25269	-1105.08496	132.13297	1512.25708	-1103.54565	155.82156	1237.24634	-1067.88074	-13.16052	1466.18335	-1071.24634	-86.13287	1300.60425	-1174.02783	158.80688	1335.46899	-913.98938	91.07932	1494.99438	-831.59979	110.67149	1294.60706	-820.89435	113.25552	1155.21655	-797.69318	110.43694	1026.06494	-806.71008	53.49202	896.75098	-785.77576	105.20401	903.25098	-775.36499	91.16878	838.29706	-1274.95618	19.97035	1493.13538	-1356.74060	0.96554	1298.71814	-1368.22705	-44.52163	1158.29468	-1375.70947	-105.99734	1053.06799	-1339.16553	-179.11154	943.53345	-1381.59424	-144.99190	928.88068	-1370.26025	-195.70079	876.66833	-941.32196	-89.01625	1000.74091	-1192.95740	-89.61027	967.34119	-1022.29370	122.53835	1029.99255	-1138.34619	126.56332	1023.09302	-888.95831	-54.96090	684.28198	-925.68207	-45.16870	480.61871	-934.00989	-2.11376	289.03253	-979.95343	-19.84906	69.86217	-1034.59399	12.52002	43.28726	-962.87878	-176.63994	33.79154	-1277.95630	7.97457	664.45630	-1273.15527	20.01364	464.46558	-1275.50659	171.70015	360.92752	-1239.08459	315.89575	236.45537	-1172.27234	359.24957	236.23824	-1244.55737	303.40546	66.27317	-1136.42700	84.20700	1802.62646	-3360.42432	2845.22827	1034.08374						 
103	1.020	-1024.87646	-17.16821	1756.75708	-1163.79187	-43.43679	1731.01538	-1033.52136	103.21761	1666.66785	-1172.94788	89.17434	1637.72681	-1103.06042	124.19173	1513.51514	-1100.74097	148.27481	1238.37854	-1066.72839	-21.04839	1467.13928	-1070.16052	-93.74261	1301.43665	-1171.31250	151.57779	1336.28333	-912.02295	81.99944	1496.45374	-828.93011	99.54897	1295.74353	-817.19586	100.93826	1156.40491	-794.34894	95.70195	1026.96057	-803.90625	35.73327	899.25427	-782.31647	87.67759	904.42090	-771.46619	71.68456	840.21729	-1273.62439	13.30502	1493.68616	-1354.84485	-4.72698	1299.13367	-1366.66260	-50.11857	1158.71667	-1374.53418	-110.99833	1053.31213	-1338.37854	-183.68643	943.18591	-1380.69128	-149.26862	928.74884	-1369.53699	-199.42255	876.11847	-939.81403	-96.99710	1000.48810	-1192.25342	-96.37428	968.87329	-1019.58374	114.83295	1031.17065	-1135.55762	119.95362	1024.29651	-888.73083	-59.71333	684.45624	-924.90918	-47.39140	480.55762	-932.96204	-3.29002	289.13431	-979.84576	-19.75043	69.79778	-1034.52002	12.69538	43.23329	-962.90283	-176.51048	33.78650	-1277.51489	-6.56457	665.61115	-1272.35486	2.42290	465.97903	-1273.77319	154.71053	363.77350	-1235.91394	300.00974	241.07382	-1168.39294	342.59238	240.38507	-1246.44592	289.39063	71.54298	-1134.20300	75.07732	1803.93665	-3360.42041	2845.22070	1034.01807						 
